<svg width="24" height="24" viewBox="0 0 24 24" fill="none" xmlns="http://www.w3.org/2000/svg">
<g clip-path="url(#clip0_1_2)">
<g clip-path="url(#clip1_1_2)">
<path d="M22.36 18H19.3333C18.9797 18 18.6406 18.1405 18.3905 18.3905C18.1405 18.6406 18 18.9797 18 19.3333V22.36" stroke="black" stroke-linecap="round" stroke-linejoin="round"/>
<path d="M12.6667 10.2267V11.3333C12.6667 11.8638 12.8774 12.3725 13.2525 12.7475C13.6275 13.1226 14.1362 13.3333 14.6667 13.3333C15.0203 13.3333 15.3594 13.4738 15.6095 13.7239C15.8595 13.9739 16 14.313 16 14.6667C16 15.4 16.6 16 17.3333 16C17.687 16 18.0261 15.8595 18.2761 15.6095C18.5262 15.3594 18.6667 15.0203 18.6667 14.6667C18.6667 13.9333 19.2667 13.3333 20 13.3333H22.1133" stroke="black" stroke-linecap="round" stroke-linejoin="round"/>
<path d="M15.3333 22.6333V20C15.3333 19.6464 15.1929 19.3072 14.9428 19.0572C14.6928 18.8071 14.3536 18.6667 14 18.6667C13.6464 18.6667 13.3072 18.5262 13.0572 18.2761C12.8071 18.0261 12.6667 17.687 12.6667 17.3333V16.6667C12.6667 16.313 12.5262 15.9739 12.2761 15.7239C12.0261 15.4738 11.687 15.3333 11.3333 15.3333H9.36667" stroke="black" stroke-linecap="round" stroke-linejoin="round"/>
<path d="M16 22.6667C19.6819 22.6667 22.6667 19.6819 22.6667 16C22.6667 12.3181 19.6819 9.33333 16 9.33333C12.3181 9.33333 9.33333 12.3181 9.33333 16C9.33333 19.6819 12.3181 22.6667 16 22.6667Z" stroke="black" stroke-linecap="round" stroke-linejoin="round"/>
</g>
<mask id="mask0_1_2" style="mask-type:alpha" maskUnits="userSpaceOnUse" x="0" y="0" width="24" height="24">
<path d="M14.106 5.553C14.3836 5.69172 14.6897 5.76393 15 5.76393C15.3103 5.76393 15.6164 5.69172 15.894 5.553L19.553 3.723C19.7056 3.64676 19.8751 3.61081 20.0455 3.61857C20.2159 3.62633 20.3814 3.67754 20.5265 3.76733C20.6715 3.85712 20.7911 3.98251 20.874 4.13158C20.9569 4.28065 21.0003 4.44844 21 4.619V17.383C20.9999 17.5687 20.9481 17.7506 20.8504 17.9085C20.7528 18.0664 20.6131 18.194 20.447 18.277L15.894 20.554C15.6164 20.6927 15.3103 20.7649 15 20.7649C14.6897 20.7649 14.3836 20.6927 14.106 20.554L9.894 18.448C9.6164 18.3093 9.31033 18.2371 9 18.2371C8.68967 18.2371 8.3836 18.3093 8.106 18.448L4.447 20.278C4.29435 20.3543 4.12472 20.3902 3.95426 20.3824C3.78379 20.3746 3.61816 20.3233 3.47312 20.2334C3.32808 20.1435 3.20846 20.018 3.12565 19.8688C3.04283 19.7196 2.99958 19.5516 3 19.381V6.618C3.0001 6.43234 3.05188 6.25037 3.14955 6.09247C3.24722 5.93458 3.38692 5.80699 3.553 5.724L8.106 3.447C8.3836 3.30828 8.68967 3.23607 9 3.23607C9.31033 3.23607 9.6164 3.30828 9.894 3.447L14.106 5.553Z" stroke="black" stroke-linecap="round" stroke-linejoin="round"/>
<path d="M15 5.764V20.764" stroke="black" stroke-linecap="round" stroke-linejoin="round"/>
<path d="M9 3.236V18.236" stroke="black" stroke-linecap="round" stroke-linejoin="round"/>
</mask>
<g mask="url(#mask0_1_2)">
<path d="M24 24H16C20.4183 24 24 20.4183 24 16C24 11.5817 20.4183 8 16 8C11.5817 8 8 11.5817 8 16C8 20.4183 11.5817 24 16 24H0V0H24V24Z" fill="black"/>
</g>
</g>
<defs>
<clipPath id="clip0_1_2">
<rect width="24" height="24" fill="white"/>
</clipPath>
<clipPath id="clip1_1_2">
<rect width="16" height="16" fill="white" transform="translate(8 8)"/>
</clipPath>
</defs>
</svg>
